<?xml version="1.0" encoding="UTF-8"?>
<!DOCTYPE svg PUBLIC "-//W3C//DTD SVG 1.1//EN" "http://www.w3.org/Graphics/SVG/1.1/DTD/svg11.dtd">
<!-- Creator: CorelDRAW 2017 -->
<svg xmlns="http://www.w3.org/2000/svg" xml:space="preserve" width="129.362mm" height="48.0822mm" version="1.1" style="shape-rendering:geometricPrecision; text-rendering:geometricPrecision; image-rendering:optimizeQuality; fill-rule:evenodd; clip-rule:evenodd"
viewBox="0 0 12936.22 4808.22"
 xmlns:xlink="http://www.w3.org/1999/xlink">
 <defs>
  <style type="text/css">
   <![CDATA[
    .fil0 {fill:#FEFEFE}
    .fil1 {fill:black}
   ]]>
  </style>
 </defs>
 <g id="Layer_x0020_1">
  <metadata id="CorelCorpID_0Corel-Layer"/>
  <path class="fil0" d="M2040.75 3741.84c-92.94,251.61 -614.55,147.51 -510.72,-120.55 37.87,-97.77 178.61,-153.95 320.39,-136.58 117.74,14.42 242.99,114.59 190.33,257.13zm1861.72 -1100.66c-46.07,219.16 -307.15,231.62 -550.43,218.81 -114.81,-6.05 -224.58,-21.72 -313.99,-73.71 -45.31,-26.34 -59.62,-52.44 -75.12,-119.17 -12.91,-55.6 -14.11,-122.44 -0.94,-178.68 52.69,-224.85 302.73,-228.51 551.25,-222.51 125.36,3.02 240.46,7.99 314.11,78.18 64.47,61.46 98.7,184.95 75.12,297.08zm-1889 210.5c-150.87,10.35 -434.35,13.54 -582.44,-0.89 -167.15,-16.29 -294.85,-132.46 -273.19,-319.97 20.56,-177.88 132.96,-259.55 323.14,-262.1 196.73,-2.64 396.26,0.75 593.37,0.65 -31,264.8 -62.29,246.14 -60.88,582.31zm2296.18 -1573.64c-69.3,444.8 -451.43,123.77 -961.36,309.24 -501.18,182.28 -612.48,807.81 -633.3,1308.11 -19.38,466.06 123.19,912.4 -283.59,984.33 -77.1,13.63 -221.91,14.68 -277.39,-31.74 -60.96,-51.01 -34.93,-203.85 -35.2,-292.4 -2.45,-813.35 -31.61,-2016.2 786.66,-2436.39 321.9,-165.3 744.43,-188.83 1107.3,-184.27 110.08,1.39 216.66,-11.04 261.96,64.42 44.3,73.8 49.49,185.19 34.92,278.7zm-2269.61 253.67l-651.94 -5.59c-176.04,-2.5 -388.79,6.37 -559.24,-8.15 -173.87,-14.81 -285.04,-99.2 -299.77,-273.36 -15.13,-179.01 95.18,-308.04 266.35,-307.63l2185.46 4.01c-46.5,38.67 -187.22,88.44 -252.31,128.18 -90.01,54.96 -151.57,104.79 -215.01,166 -52.71,50.86 -175.53,192.46 -215.75,258.51 -19.23,31.59 -17.83,34.55 -62.3,36.21 -63.81,2.38 -131.43,1.95 -195.49,1.82zm-2040.47 -787.06l0 3318.92c0,170.06 74.82,352.62 179.68,472.26 151.88,173.29 343.93,272.81 590.79,272.81l3259.67 0c333.01,0 604.59,-192.08 725.82,-493.37 40.57,-100.82 53.11,-223.49 53.11,-361.76l0 -3098.8c0,-358.9 -117.37,-615.82 -440.23,-778.96 -90.9,-45.94 -202.47,-76.17 -338.7,-76.17l-3259.67 0c-218.38,0 -447.76,96.27 -583.02,263.65 -56.22,69.57 -67.74,81.69 -114.14,173.73 -39.86,79.07 -73.31,192.87 -73.31,307.69z"/>
  <g id="_698545568">
   <path class="fil0" d="M7577.24 1955.38c0,422.7 -34.6,985.38 188.56,1284.64 75.91,101.8 181.1,182.81 314.01,227.85 144.03,48.81 326.03,70.77 479.56,70.77 100.19,0 330.95,-4.3 413.5,-43.71 22.37,-10.68 47.66,-24.94 68.03,-42.03l53.88 -64.66c29.79,-48.87 40.33,-119.8 40.33,-196.73l-287.58 17.22c-259.79,0.36 -560.62,22.48 -730.56,-167.49 -121.28,-135.58 -133.33,-386.62 -133.33,-569.4l474.13 0c106.75,0 196.42,-33.07 247.8,-90.87 45.94,-51.69 120.28,-239.33 57,-239.33l-770.46 0c0,-70.06 -8.47,-106.11 -8.47,-177.8 0,-388.81 -43.32,-355.6 287.87,-355.6 206.61,0 544.01,29.23 676.36,-68.7 73.88,-54.68 111.04,-143.11 111.04,-269.96 -173.77,0 -348.48,16.93 -524.94,16.93 -168.78,0 -378.71,-10.27 -528.81,13.05 -357.08,55.5 -427.92,252.91 -427.92,655.82z"/>
   <path class="fil0" d="M9406.04 1802.98l0 1354.66c0,114.61 17.3,200.15 90.85,273.22 87.58,87 195.19,99.32 324.02,99.32 0,-52.8 -8.69,-65.88 -8.76,-118.25l-8.17 -940.09 482.6 0c206.14,0 321.73,-123.61 321.73,-330.2l-804.33 0c0,-573.99 -44.07,-533.4 245.53,-533.4 185.09,0 547.99,25.35 694.55,-50.51 107.73,-55.76 135.18,-164.71 135.18,-288.15 -156.58,0 -326.1,17.13 -482.59,16.94 -209.18,-0.26 -501.77,-22.1 -699.71,45.36 -126.81,43.21 -210.78,127.19 -254,254 -22.47,65.91 -36.9,132.92 -36.9,217.1z"/>
   <path class="fil0" d="M11167.11 1303.44c0.92,41.48 34.83,112.33 53.52,149.68l195.59 414.02c66.15,160.3 197.57,401.55 262.46,558.8 38.28,92.75 94,185.3 130.71,275.69 32.78,80.7 35.36,52.33 35.06,168.14 -0.71,280.66 -47.91,537.12 187.33,625.47 91.88,34.51 127.17,34.94 227.53,34.94 0,-131.18 -8.47,-232.26 -8.47,-364.07l0 -347.13c0,-47.25 50.51,-136.61 76.31,-194.63 71.82,-161.51 202.08,-404.55 267.25,-562.48l305.59 -651.14c14.74,-29.19 35.81,-69.62 36.65,-107.29 -101.93,-8.48 -147.64,-44.08 -304.79,25.41 -148.07,65.47 -203.96,265.51 -279.37,414.89l-296.37 634.97c-20.2,-14.8 -26.87,-45.4 -39.46,-70.61l-73.49 -155.11c-15.27,-30.24 -21.9,-51.56 -36.52,-82.01l-305.94 -625.39c-25.4,-40.85 -73.53,-87.82 -117.39,-111.22 -140.29,-74.84 -228.5,-38.22 -316.2,-30.93z"/>
   <path class="fil0" d="M5612.97 1565.91l0 42.33 711.2 0c0,176.03 -8.46,323.07 -8.46,499.54l0 1092.2c0,98.5 41.57,195.61 97.72,240.94 96.59,77.99 188.78,89.26 317.14,89.26l-16.93 -1921.94 414.87 0c186.89,0 304.8,-135.21 304.8,-321.73l-1549.4 0c-147.97,0 -270.94,132.13 -270.94,279.4z"/>
  </g>
  <g id="_698589408">
   <path class="fil1" d="M4309.65 1278.04c14.57,-93.51 9.38,-204.9 -34.92,-278.7 -45.3,-75.46 -151.88,-63.03 -261.96,-64.42 -362.87,-4.56 -785.4,18.97 -1107.3,184.27 -818.27,420.19 -789.11,1623.04 -786.66,2436.39 0.27,88.55 -25.76,241.39 35.2,292.4 55.48,46.42 200.29,45.37 277.39,31.74 406.78,-71.93 264.21,-518.27 283.59,-984.33 20.82,-500.3 132.12,-1125.83 633.3,-1308.11 509.93,-185.47 892.06,135.56 961.36,-309.24z"/>
   <path class="fil1" d="M2040.04 1531.71c64.06,0.13 131.68,0.56 195.49,-1.82 44.47,-1.66 43.07,-4.62 62.3,-36.21 40.22,-66.05 163.04,-207.65 215.75,-258.51 63.44,-61.21 125,-111.04 215.01,-166 65.09,-39.74 205.81,-89.51 252.31,-128.18l-2185.46 -4.01c-171.17,-0.41 -281.48,128.62 -266.35,307.63 14.73,174.16 125.9,258.55 299.77,273.36 170.45,14.52 383.2,5.65 559.24,8.15l651.94 5.59z"/>
   <path class="fil1" d="M3902.47 2641.18c23.58,-112.13 -10.65,-235.62 -75.12,-297.08 -73.65,-70.19 -188.75,-75.16 -314.11,-78.18 -248.52,-6 -498.56,-2.34 -551.25,222.51 -13.17,56.24 -11.97,123.08 0.94,178.68 15.5,66.73 29.81,92.83 75.12,119.17 89.41,51.99 199.18,67.66 313.99,73.71 243.28,12.81 504.36,0.35 550.43,-218.81z"/>
   <path class="fil1" d="M2013.47 2851.68c-1.41,-336.17 29.88,-317.51 60.88,-582.31 -197.11,0.1 -396.64,-3.29 -593.37,-0.65 -190.18,2.55 -302.58,84.22 -323.14,262.1 -21.66,187.51 106.04,303.68 273.19,319.97 148.09,14.43 431.57,11.24 582.44,0.89z"/>
   <path class="fil1" d="M2040.75 3741.84c52.66,-142.54 -72.59,-242.71 -190.33,-257.13 -141.78,-17.37 -282.52,38.81 -320.39,136.58 -103.83,268.06 417.78,372.16 510.72,120.55z"/>
  </g>
 </g>
</svg>
