<?xml version="1.0" encoding="UTF-8"?>
<!DOCTYPE svg PUBLIC "-//W3C//DTD SVG 1.1//EN" "http://www.w3.org/Graphics/SVG/1.1/DTD/svg11.dtd">
<!-- Creator: CorelDRAW 2019 (64-Bit Evaluation Version) -->
<svg xmlns="http://www.w3.org/2000/svg" xml:space="preserve" width="78.791mm" height="78.791mm" version="1.1" style="shape-rendering:geometricPrecision; text-rendering:geometricPrecision; image-rendering:optimizeQuality; fill-rule:evenodd; clip-rule:evenodd"
viewBox="0 0 7879.1 7879.1"
 xmlns:xlink="http://www.w3.org/1999/xlink"
 xmlns:xodm="http://www.corel.com/coreldraw/odm/2003">
 <defs>
  <style type="text/css">
   <![CDATA[
    .str0 {stroke:#2B2A29;stroke-width:20;stroke-miterlimit:22.9256}
    .fil2 {fill:#FEFEFE}
    .fil0 {fill:#2B2A29}
    .fil1 {fill:#FEFEFE;fill-rule:nonzero}
   ]]>
  </style>
 </defs>
 <g id="Layer_x0020_1">
  <metadata id="CorelCorpID_0Corel-Layer"/>
  <g id="_846112048">
   <rect class="fil0 str0" x="40.73" y="48.39" width="7783.38" height="7783.39" rx="2404.66" ry="3891.7"/>
   <path class="fil1" d="M1667.12 4976.13l-1091 194.84 -82.86 -463.97c-20.82,-116.57 -26.06,-203.16 -15.94,-259.47 10.08,-56.57 37.34,-104.94 81.7,-145.62 44.62,-40.72 98.9,-66.93 163.4,-78.45 82.03,-14.65 153.84,-2.84 215.75,35.63 61.9,38.48 108.21,104.1 139.23,197.1 19.2,-52.44 42.69,-96.99 70.47,-133.66 27.73,-36.92 79.47,-89.14 154.95,-156.6l189.05 -171.08 47.03 263.35 -210 200.5c-74.45,71.74 -120.84,120.12 -139.17,145.14 -18.12,24.73 -29.41,49.54 -33.37,74.36 -3.91,25.07 -1.35,62.87 7.72,113.66l7.98 44.7 455.6 -81.37 39.46 220.94zm-668.76 -108.55l-29.12 -163.04c-18.87,-105.64 -35.19,-170.6 -48.79,-195.43 -13.56,-24.57 -32.77,-42.62 -57.24,-53.45 -24.52,-11.09 -53.26,-13.55 -86.02,-7.7 -36.83,6.57 -64.51,21.74 -83.88,45.37 -19.11,23.6 -28.38,53.82 -27.87,90.41 0.67,18.49 8.98,72.3 24.89,161.44l30.71 171.93 277.32 -49.53zm405.36 -1511.22l82.38 -198.62c69.57,43.86 117.44,99.12 143.99,165.35 26.24,66.42 29.56,142.64 9.77,228.36 -31.39,135.99 -99.14,226.51 -203.15,271.08 -83.28,35.05 -179.25,40.17 -288.09,15.05 -129.71,-29.94 -223.67,-87.37 -281.47,-171.93 -58.04,-84.61 -74.96,-178.8 -51.05,-282.36 26.8,-116.13 86.44,-199.01 178.91,-248.62 92.41,-49.36 217.72,-54.32 375.89,-14.64l-119.4 517.31c61.68,12.65 113.27,7.08 154.82,-16.95 41.49,-23.78 67.76,-59.55 78.66,-106.81 7.49,-32.42 4.96,-61.6 -7.59,-87.53 -12.49,-26.18 -37.07,-49.33 -73.67,-69.69zm-206.85 -60.45c-60.43,-12.36 -109.71,-7.59 -147.67,14.63 -38.21,22.15 -62.03,54.25 -71.78,96.48 -10.39,44.99 -2.38,86.02 23.76,123.03 26.14,37.02 67.83,61.73 124.5,74.28l71.19 -308.42zm-144.24 -572.49l58.64 -101.98 -52.56 -30.22c-58.59,-33.69 -98.83,-65.16 -120.48,-94.27 -21.87,-29.24 -32.11,-65.78 -30.93,-109.74 1.3,-44.18 16.56,-91.95 46.13,-143.38 30.22,-52.56 67.76,-99.72 112.47,-141.26l114.42 97.03c-24.16,25.98 -44.33,52.77 -60.27,80.51 -15.69,27.28 -20.61,50.34 -14.91,69.39 5.71,19.06 26.39,38.98 62.18,59.56l49.65 28.54 79.46 -138.2 144.92 83.32 -79.46 138.21 551.5 317.09 -105.7 183.84 -551.51 -317.1 -58.63 101.98 -144.92 -83.32zm1163.09 -635.09l178.04 -120.56c33.98,74.9 43.56,147.38 29.3,217.29 -14.62,69.9 -53.77,135.38 -117.44,196.09 -101.02,96.3 -207.39,134.63 -318.77,114.64 -88.83,-16.53 -171.8,-65.04 -248.87,-145.89 -91.85,-96.34 -138.74,-195.99 -140.5,-298.4 -1.93,-102.59 35.75,-190.56 112.68,-263.9 86.26,-82.24 181.65,-118.64 286.16,-109.22 104.33,9.61 211.71,74.4 321.98,194.53l-384.27 366.35c44.56,44.49 90.71,68.22 138.63,71.01 47.73,2.96 89.34,-12.47 124.44,-45.93 24.08,-22.97 38.02,-48.73 41.8,-77.29 3.98,-28.73 -3.82,-61.58 -23.18,-98.72zm-139.5 -164.26c-43.67,-43.56 -87.46,-66.68 -131.38,-69.01 -44.09,-2.51 -81.64,11.19 -113.01,41.1 -33.42,31.86 -49.31,70.53 -47.83,115.82 1.47,45.28 22.69,88.85 63.12,130.51l229.1 -218.42zm811.18 14.7l-188.73 96.67 -366.21 -715.01 174.97 -89.61 51.98 101.49c5.5,-63.4 16.48,-108.73 32.94,-136 16.47,-27.28 40.03,-48.62 70.57,-64.26 43.16,-22.11 90.84,-31.45 142.9,-28.26l25.89 194.84c-42.5,-4.31 -77.41,0.52 -104.74,14.52 -26.63,13.64 -45.37,32.51 -56.33,56.38 -10.84,24.11 -11.9,57.69 -2.94,101.22 8.96,43.52 44.6,126.13 106.81,247.59l112.89 220.43zm1771.56 -385.64l-132.83 160.51c-62.15,-32.28 -121.68,-76.11 -178.35,-131.47 -45.63,39.1 -94.09,67.55 -144.86,85.37 -50.77,17.81 -110.84,25.84 -180.47,24.08 -137.72,-3.48 -240.4,-45.05 -308.07,-124.43 -52.39,-61.19 -77.46,-130.99 -75.49,-209.13 1.8,-71.18 24.57,-134.6 68.55,-190.26 43.73,-55.67 108.42,-103.32 193.8,-142.97 -36.77,-45.83 -64.32,-89.36 -82.37,-130.59 -18.31,-41.24 -26.88,-79.9 -25.97,-116.27 1.7,-67.05 29.96,-123.36 84.79,-168.69 54.56,-45.33 131.74,-66.86 230.77,-64.36 95.42,2.42 169.59,28.81 222.26,78.91 52.66,50.36 77.98,110.62 76.19,181.28 -1.14,44.87 -15.36,87.09 -42.94,126.65 -27.58,39.56 -82.12,83.86 -163.87,132.63l147.24 208.88c18.86,-31.52 35.39,-73.17 49.85,-124.42l191.3 47.93c-20.81,67.6 -38.84,117.21 -53.81,148.31 -14.73,31.11 -30.61,57.29 -47.39,78.03 23.16,22.78 53.24,47.8 90.22,75.31 36.98,27.52 64.13,45.75 81.45,54.7zm-562.68 -618.07l58.11 -42.66c42.87,-31.69 64.58,-63.66 65.39,-95.89 0.69,-27.34 -8.78,-50.8 -28.67,-70.4 -19.63,-19.85 -46.73,-30.08 -81.28,-30.96 -33.53,-0.85 -60.05,7 -79.56,23.28 -19.25,16.55 -29.29,35.9 -29.85,58.08 -0.66,26.31 14.52,58.43 45.56,96.63l50.3 61.92zm-88.88 228.97c-49.11,23.53 -86.23,52.53 -111.35,86.73 -24.86,34.21 -37.89,69.49 -38.8,105.6 -1.16,45.9 12.85,83.93 42.03,113.57 28.92,29.89 68.53,45.35 118.82,46.62 33.01,0.83 65.15,-4.81 95.92,-17.19 31.02,-12.38 64.83,-33.2 101.71,-62.72l-208.33 -272.61zm1185.05 779.08l684.78 -871.38 645.01 506.9 -115.72 147.25 -468.55 -368.21 -152.07 193.5 435.69 342.4 -115.72 147.26 -435.69 -342.39 -185.54 236.09 485.58 381.61 -115.72 147.26 -662.05 -520.29zm1333.89 543.85l-66.15 -183.37c78.79,-20.31 147.76,-16.81 206.77,10.27 59.01,27.07 114.56,85.89 166.5,176.24 47.2,82.08 72.81,148.89 76.5,200.33 3.56,51.22 -4.71,93.76 -25.29,127.32 -20.58,33.56 -70.62,73.34 -150.68,119.37l-216.24 120.76c-61.05,35.11 -104.56,63.99 -130.29,86.52 -25.73,22.53 -50.51,51.36 -74.35,86.5l-104.93 -182.5c9.38,-11.64 23.8,-27.96 43.52,-48.52 9.28,-9.21 15.15,-15.57 17.74,-18.84 -48.87,-13.56 -91.19,-33.86 -127.2,-60.77 -36,-26.91 -65.69,-60.43 -88.96,-100.91 -41.03,-71.34 -53.97,-138.89 -38.72,-202.41 15.03,-63.39 52.4,-112.26 111.9,-146.46 39.13,-22.51 79.65,-33.3 121.31,-32.26 41.44,1.17 80.19,13.7 116.06,38.31 35.74,24.38 78.09,64.91 127.04,121.57 65.48,76.62 115.02,127.59 147.91,152.72l18.56 -10.68c35.79,-20.57 56.27,-43.95 61.67,-70.26 5.05,-26.42 -6.38,-63.89 -34.28,-112.42 -18.91,-32.87 -40.05,-54.64 -63.79,-65.39 -23.64,-11.11 -55.16,-12.62 -94.6,-5.12zm-6.98 332.53c-21.33,-18.98 -52.2,-50.92 -92.61,-95.84 -40.27,-44.69 -70.29,-72.07 -89.58,-81.8 -30.98,-14.03 -59.39,-13.76 -85.56,1.28 -25.94,14.92 -42.55,37.26 -50.28,67.3 -7.73,30.03 -3.11,59.81 13.99,89.55 19.04,33.11 48.25,58.56 87.31,76.28 29.5,12.5 58.12,15.68 86.25,8.73 18.36,-4.3 49.74,-19.08 93.8,-44.41l36.68 -21.09zm-127.78 776.12l-47.69 -206.62 782.75 -180.67 44.21 191.54 -111.1 25.65c60.13,20.8 101.41,42.51 123.85,65.13 22.43,22.63 37.37,50.68 45.09,84.11 10.91,47.26 8.34,95.77 -7.45,145.49l-195.28 -22.44c14.56,-40.17 18.38,-75.2 11.48,-105.12 -6.73,-29.15 -20.46,-51.93 -40.94,-68.39 -20.73,-16.39 -53.04,-25.61 -97.43,-27.54 -44.4,-1.94 -133.21,12.47 -266.18,43.16l-241.31 55.7zm17.29 1124.69l16.08 -211.44 408.23 31.05c86.43,6.57 142.6,6.19 168.49,-0.9 26.17,-7.32 46.84,-20.5 62.55,-40 15.71,-19.5 24.54,-43.67 26.73,-72.48 2.81,-37.04 -4.7,-70.99 -22.53,-101.84 -17.81,-31.1 -43.04,-53.2 -75.15,-66.51 -32.33,-13.58 -93.15,-23.64 -182.66,-30.45l-362.18 -27.55 16.08 -211.44 801.01 60.92 -14.9 196.01 -117.56 -8.94c84.43,77.05 122.48,168.69 114.37,275.44 -3.57,46.81 -15.32,89.12 -34.99,126.7 -19.96,37.8 -43.54,65.5 -71.02,83.34 -27.77,18.06 -58.4,29.7 -92.17,34.9 -33.79,5.44 -81.42,5.71 -143.15,1.01l-497.23 -37.82z"/>
   <g>
    <path class="fil2" d="M4972.34 5096.15c-409.86,136.8 -1102.37,-1106.01 -1079.58,-1541.91 202.25,-91.09 283.86,37.9 423.04,184.5 109.18,114.99 191.77,224.74 289.41,371.34 170.11,255.38 415.75,684.98 367.13,986.07zm-870.47 1398.94c-93.19,-266.26 -569.37,-395.59 -574.15,-757.9 250.51,-307.69 789.81,-498.02 1181.38,-367.01 150.81,50.47 465.32,245.68 491.85,-108.43 43.88,-585.85 -592.46,-1489.83 -968.85,-1833.74 -107.9,-98.61 -362.58,-328.17 -549.8,-180.45 -103.87,81.95 -29.77,440.35 -81.4,644.01 -114.06,449.89 -373.73,561.86 -857.11,865.54 -407.43,255.94 -853.7,454.86 -739.85,944.76 58.85,253.2 249.17,383.74 416.39,439.95 588.48,197.82 395.68,-504.52 1102.67,362.01 164.29,201.35 358.91,198.65 578.87,-8.74z"/>
    <path class="fil2" d="M4971.44 3947.83c56.1,252.96 365.35,3.23 749.93,-199.83 129.26,-68.26 177.57,-67.44 104.17,-219.35 -156.56,-10.87 -764.14,312.5 -854.1,419.18z"/>
    <path class="fil2" d="M5163.39 3231.73c-585.19,430.13 -372.53,567.31 -197.44,443.23 534.88,-378.99 386.81,-582.42 197.44,-443.23z"/>
    <path class="fil2" d="M5193.12 4264.76c-252.37,316.1 960.73,43.59 593.17,-130.97 -44.51,-21.13 -532.23,54.64 -593.17,130.97z"/>
    <path class="fil2" d="M5286.87 4684.27c-66.69,151.16 284.01,179.13 329.99,92.71 53.78,-101.09 -36.79,-137.72 -111.85,-153.03 -95.41,-19.46 -181.13,-23.55 -218.14,60.32z"/>
    <path class="fil2" d="M4558.62 3400.03c165.55,7.23 295.24,-207.25 200.17,-293.35 -78.41,-71.03 -150.22,25.28 -181.16,71.75 -49.44,74.27 -69.52,108.33 -19.01,221.6z"/>
   </g>
  </g>
 </g>
</svg>
