<?xml version="1.0" encoding="utf-8"?>
<!-- Generator: Adobe Illustrator 23.0.6, SVG Export Plug-In . SVG Version: 6.00 Build 0)  -->
<svg version="1.1" id="Layer_1" xmlns="http://www.w3.org/2000/svg" xmlns:xlink="http://www.w3.org/1999/xlink" x="0px" y="0px"
	 viewBox="0 0 234 151" style="enable-background:new 0 0 234 151;" xml:space="preserve">
<style type="text/css">
	.st0{fill-rule:evenodd;clip-rule:evenodd;fill:url(#Path-29-Copy-2_1_);}
	.st1{fill-rule:evenodd;clip-rule:evenodd;fill:url(#Path-30-Copy-2_1_);}
	.st2{fill-rule:evenodd;clip-rule:evenodd;fill:url(#Rectangle_1_);}
	.st3{fill-rule:evenodd;clip-rule:evenodd;fill:url(#Path-33_1_);}
	.st4{fill-rule:evenodd;clip-rule:evenodd;fill:url(#Path-32_1_);}
	.st5{opacity:0.6;fill:none;stroke:#FFFFFF;stroke-width:0.5;stroke-linecap:round;enable-background:new    ;}
	.st6{fill-rule:evenodd;clip-rule:evenodd;fill:url(#Path-34_1_);}
	.st7{fill-rule:evenodd;clip-rule:evenodd;fill:url(#Path-35_1_);}
	.st8{opacity:0.5;fill:none;stroke:#A28BED;stroke-width:0.5;stroke-linecap:round;enable-background:new    ;}
	.st9{fill-rule:evenodd;clip-rule:evenodd;fill:url(#SVGID_1_);}
	.st10{fill-rule:evenodd;clip-rule:evenodd;fill:url(#Rectangle-Copy-27_1_);}
	.st11{opacity:0.8;fill-rule:evenodd;clip-rule:evenodd;fill:url(#SVGID_2_);enable-background:new    ;}
	.st12{opacity:0.8;fill-rule:evenodd;clip-rule:evenodd;fill:url(#SVGID_3_);enable-background:new    ;}
	.st13{fill-rule:evenodd;clip-rule:evenodd;fill:#45299E;}
	.st14{fill-rule:evenodd;clip-rule:evenodd;fill:url(#Path-5_1_);}
	.st15{fill-rule:evenodd;clip-rule:evenodd;fill:url(#Combined-Shape_1_);}
	.st16{fill-rule:evenodd;clip-rule:evenodd;fill:url(#SVGID_4_);}
	.st17{fill-rule:evenodd;clip-rule:evenodd;fill:url(#SVGID_5_);}
	.st18{fill-rule:evenodd;clip-rule:evenodd;fill:url(#SVGID_6_);}
	.st19{fill-rule:evenodd;clip-rule:evenodd;fill:url(#SVGID_7_);}
	.st20{fill-rule:evenodd;clip-rule:evenodd;fill:url(#SVGID_8_);}
	.st21{fill-rule:evenodd;clip-rule:evenodd;fill:url(#SVGID_9_);}
	.st22{fill-rule:evenodd;clip-rule:evenodd;fill:url(#SVGID_10_);}
	.st23{fill-rule:evenodd;clip-rule:evenodd;fill:url(#SVGID_11_);}
	.st24{fill-rule:evenodd;clip-rule:evenodd;fill:url(#SVGID_12_);}
	.st25{fill-rule:evenodd;clip-rule:evenodd;fill:url(#SVGID_13_);}
	.st26{fill-rule:evenodd;clip-rule:evenodd;fill:url(#Path-7_1_);fill-opacity:0.6;}
	.st27{fill-rule:evenodd;clip-rule:evenodd;fill:url(#Path-7-Copy_1_);fill-opacity:0.6;}
	.st28{fill-rule:evenodd;clip-rule:evenodd;fill:url(#Path-7-Copy-3_1_);fill-opacity:0.6;}
	.st29{fill-rule:evenodd;clip-rule:evenodd;fill:url(#Path-7-Copy-4_1_);fill-opacity:0.6;}
	.st30{fill-rule:evenodd;clip-rule:evenodd;fill:url(#Path-7-Copy-2_1_);fill-opacity:0.6;}
	.st31{fill-rule:evenodd;clip-rule:evenodd;fill:url(#Rectangle-Copy-24_1_);}
	.st32{fill-rule:evenodd;clip-rule:evenodd;fill:#FFFFFF;}
	.st33{fill-rule:evenodd;clip-rule:evenodd;fill:#2E108E;}
	.st34{fill-rule:evenodd;clip-rule:evenodd;fill:url(#Path-20_1_);}
	.st35{fill-rule:evenodd;clip-rule:evenodd;fill:url(#Path-19_1_);}
	.st36{fill-rule:evenodd;clip-rule:evenodd;fill:url(#Path-8_1_);}
	.st37{fill-rule:evenodd;clip-rule:evenodd;fill:url(#Path-21_1_);}
	.st38{fill-rule:evenodd;clip-rule:evenodd;fill:url(#Path-25_1_);}
	.st39{fill-rule:evenodd;clip-rule:evenodd;fill:url(#Path-24_1_);}
	.st40{opacity:0.3;fill-rule:evenodd;clip-rule:evenodd;fill:#2E108E;enable-background:new    ;}
	.st41{fill-rule:evenodd;clip-rule:evenodd;fill:url(#Path-22_1_);}
</style>
<title>Click selfie</title>
<desc>Created with Sketch.</desc>
<g id="Page-1">
	<g id="How_it_works_Web_Landing_V2" transform="translate(-201.000000, -803.000000)">
		<g id="Click-selfie" transform="translate(201.000000, 803.000000)">
			<g id="Group-14">
				
					<linearGradient id="Path-29-Copy-2_1_" gradientUnits="userSpaceOnUse" x1="-1124.2529" y1="6.0309" x2="-1124.7523" y2="5.3179" gradientTransform="matrix(227.4779 0 0 123.8576 255926.3438 -615.9948)">
					<stop  offset="0" style="stop-color:#F3F4F8"/>
					<stop  offset="1" style="stop-color:#E7E0FB"/>
				</linearGradient>
				<path id="Path-29-Copy-2" class="st0" d="M28.9,5.1C43.2-0.7,100.4-3,149.8,5.9s60.3,20,54.7,31.9c-12,25.7-17.1,25.7,8.3,50
					c23.9,23.7,27.3,35.6,10.3,35.8s-78.8,0.2-185.3,0C7.4,123.9-1,113.4,12.7,92c20.6-32,31.9-33.9,10.8-50.5S14.6,10.9,28.9,5.1z"
					/>
				
					<linearGradient id="Path-30-Copy-2_1_" gradientUnits="userSpaceOnUse" x1="-1124.7771" y1="23.0739" x2="-1124.2089" y2="23.4893" gradientTransform="matrix(231.1839 0 0 27.0456 260107.7969 -492.3084)">
					<stop  offset="0" style="stop-color:#AB99E7;stop-opacity:0.4014"/>
					<stop  offset="1" style="stop-color:#AB99E7;stop-opacity:0"/>
				</linearGradient>
				<path id="Path-30-Copy-2" class="st1" d="M9.7,123.7c-12.9,0.8-12.9,2.1,0,3.9c19.4,2.7,51.1,4.8,27.3,10.1
					c-18.2,5.8-3,10.1,45.7,13c77.8,0.7,124-1.3,138.6-5.9c14.6-4.7,13.1-7.1-4.6-7.2c-6.9-0.1-6.3-2.3,1.9-6.7
					c8.2-4.4,1.5-6.7-19.9-7.1H9.7V123.7z"/>
			</g>
			
				<linearGradient id="Rectangle_1_" gradientUnits="userSpaceOnUse" x1="-1118.1865" y1="10.3318" x2="-1120.1031" y2="11.5043" gradientTransform="matrix(105.6147 0 0 60.2814 118267.9922 -552.5821)">
				<stop  offset="0" style="stop-color:#F6F3FF"/>
				<stop  offset="1" style="stop-color:#FFFFFF"/>
			</linearGradient>
			<path id="Rectangle" class="st2" d="M53.4,63.4H159v55.7c0,2.5-2.1,4.6-4.6,4.6H58c-2.5,0-4.6-2.1-4.6-4.6V63.4L53.4,63.4z"/>
			<g id="Group-29" transform="translate(12.047872, 80.319149)">
				<g id="Mask">
				</g>
				<g>
					<g transform="translate(3.935638, 1.124468)">
						
							<linearGradient id="Path-33_1_" gradientUnits="userSpaceOnUse" x1="-1084.0112" y1="14.6193" x2="-1083.8652" y2="15.6927" gradientTransform="matrix(14.5737 0 0 42.1413 15820.3711 -616.0068)">
							<stop  offset="0" style="stop-color:#F9F6FF"/>
							<stop  offset="1" style="stop-color:#CDBDFF"/>
						</linearGradient>
						<path id="Path-33" class="st3" d="M30.8,42.1C29,21.6,27,9.3,25,5.1c-3.1-6.3-8.1-7.9-8.8,1.9c-0.6,9.9,12.7,30.3,13.3,32
							C29.9,40.1,30.4,41.1,30.8,42.1z"/>
						
							<linearGradient id="Path-32_1_" gradientUnits="userSpaceOnUse" x1="-1125.8555" y1="15.1802" x2="-1125.3065" y2="16.1008" gradientTransform="matrix(31.4234 0 0 40.6597 35384.6484 -610.1809)">
							<stop  offset="0" style="stop-color:#DAC6FF;stop-opacity:0"/>
							<stop  offset="1" style="stop-color:#6943E4"/>
						</linearGradient>
						<path id="Path-32" class="st4" d="M33.1,46.5C24.8,28.4,17.6,16,11.6,9.4c-9.1-10-12.9,3.3-7.3,10.7s21.2,17.8,27.1,26.4
							C31.4,46.5,31.9,46.5,33.1,46.5z"/>
						<path id="Path-36" class="st5" d="M32.5,46.5C21.6,29.9,14.1,19.9,10,16.5"/>
						
							<linearGradient id="Path-34_1_" gradientUnits="userSpaceOnUse" x1="-1049.931" y1="21.2248" x2="-1049.7823" y2="22.2982" gradientTransform="matrix(10.1277 0 0 29.0169 10667.498 -600.9573)">
							<stop  offset="0" style="stop-color:#E9DDFF"/>
							<stop  offset="1" style="stop-color:#6943E4"/>
						</linearGradient>
						<path id="Path-34" class="st6" d="M31.9,43.9c-4.3-18.6-2.9-28.2,3.9-28.8c10.3-1-4.4,19.7-0.2,28.8
							C37.1,44.1,35.8,44.1,31.9,43.9z"/>
						
							<linearGradient id="Path-35_1_" gradientUnits="userSpaceOnUse" x1="-1123.0536" y1="43.015" x2="-1121.8325" y2="43.2814" gradientTransform="matrix(28.9891 0 0 14.4396 32554.4004 -586.551)">
							<stop  offset="0" style="stop-color:#F9F6FF"/>
							<stop  offset="1" style="stop-color:#CDBDFF"/>
						</linearGradient>
						<path id="Path-35" class="st7" d="M29,43.9c-8.6-10-16.1-14.8-22.5-14.4c-9.7,0.6-8.5,10.9,3.3,10c7.9-0.7,14,0.8,18.4,4.5
							L29,43.9L29,43.9z"/>
						<path class="st8" d="M28.6,43.9c-6.1-5.8-12.9-8.7-20.4-8.7"/>
						<path class="st5" d="M32.7,43.6c-0.6-14.2,0.8-21.9,4.4-23.2"/>
						<path class="st8" d="M30.7,42.1C23.8,21.5,21,10.2,22.1,8.3"/>
					</g>
				</g>
			</g>
			
				<g id="Group-Copy-7" transform="translate(106.587979, 79.736440) scale(-1, 1) translate(-106.587979, -79.736440) translate(49.587979, 35.736440)">
				
					<linearGradient id="SVGID_1_" gradientUnits="userSpaceOnUse" x1="-43.6724" y1="16.1792" x2="-44.1391" y2="17.691" gradientTransform="matrix(25.7021 0 0 37.75 1198.0259 -565.7951)">
					<stop  offset="0" style="stop-color:#E1D8FD"/>
					<stop  offset="1" style="stop-color:#FFFFFF"/>
					<stop  offset="1" style="stop-color:#FFFFFF"/>
				</linearGradient>
				<path class="st9" d="M70.4,50.2h20.9c1.3,0,2.4,1.1,2.4,2.4V88l0,0H68V52.6C68,51.3,69.1,50.2,70.4,50.2z"/>
				
					<linearGradient id="Rectangle-Copy-27_1_" gradientUnits="userSpaceOnUse" x1="-23.0708" y1="23.1919" x2="-24.0017" y2="23.6513" gradientTransform="matrix(47.3883 0 0 27.3085 1141.7809 -565.7906)">
					<stop  offset="0" style="stop-color:#E1D8FD"/>
					<stop  offset="1" style="stop-color:#FFFFFF"/>
					<stop  offset="1" style="stop-color:#FFFFFF"/>
				</linearGradient>
				<path id="Rectangle-Copy-27" class="st10" d="M14.2,50.2h42.6c1.3,0,2.4,1.1,2.4,2.4v22.5c0,1.3-1.1,2.4-2.4,2.4H14.2
					c-1.3,0-2.4-1.1-2.4-2.4V52.6C11.8,51.3,12.9,50.2,14.2,50.2z"/>
				
					<linearGradient id="SVGID_2_" gradientUnits="userSpaceOnUse" x1="-107.7748" y1="22.5692" x2="-107.8859" y2="23.5692" gradientTransform="matrix(10.4415 0 0 27.3085 1163.4645 -565.7906)">
					<stop  offset="0" style="stop-color:#FFFFFF"/>
					<stop  offset="1" style="stop-color:#FFFFFF;stop-opacity:0"/>
				</linearGradient>
				<polygon class="st11" points="41.5,50.2 43.9,50.2 35.9,77.5 33.5,77.5 				"/>
				
					<linearGradient id="SVGID_3_" gradientUnits="userSpaceOnUse" x1="-175.427" y1="38.3625" x2="-175.5488" y2="39.3625" gradientTransform="matrix(6.4255 0 0 16.0638 1171.5273 -565.7805)">
					<stop  offset="0" style="stop-color:#FFFFFF"/>
					<stop  offset="1" style="stop-color:#FFFFFF;stop-opacity:0"/>
				</linearGradient>
				<polygon class="st12" points="46.4,50.2 47.9,50.2 43,66.3 41.5,66.3 				"/>
				<path class="st13" d="M88.5,68.7h3.2c0.2,0,0.4,0.2,0.4,0.4v0.2c0,0.2-0.2,0.4-0.4,0.4h-3.2c-0.2,0-0.4-0.2-0.4-0.4v-0.2
					C88.1,68.9,88.2,68.7,88.5,68.7z"/>
				
					<linearGradient id="Path-5_1_" gradientUnits="userSpaceOnUse" x1="-8.858" y1="22.4947" x2="-10.7746" y2="22.7135" gradientTransform="matrix(113.972 0 0 28.1027 1130.0267 -616.0021)">
					<stop  offset="0" style="stop-color:#F6F3FF"/>
					<stop  offset="1" style="stop-color:#FFFFFF"/>
				</linearGradient>
				<path id="Path-5" class="st14" d="M21.9,0h69c3.1,0,6,1.6,7.7,4.2L114,28.1l0,0H0L14,4.5C15.6,1.7,18.6,0,21.9,0z"/>
				
					<linearGradient id="Combined-Shape_1_" gradientUnits="userSpaceOnUse" x1="-120.0258" y1="56.8346" x2="-119.2911" y2="55.9059" gradientTransform="matrix(9.3676 0 0 10.9288 1129.9741 -587.8858)">
					<stop  offset="0" style="stop-color:#E8E2FF"/>
					<stop  offset="1" style="stop-color:#FFFFFF"/>
				</linearGradient>
				<path id="Combined-Shape" class="st15" d="M9.4,28.1v7H9.3C8.9,37.3,7,39,4.7,39s-4.2-1.7-4.6-3.9H0v-7
					C0,28.1,9.4,28.1,9.4,28.1z"/>
				
					<linearGradient id="SVGID_4_" gradientUnits="userSpaceOnUse" x1="-104.1251" y1="55.9804" x2="-98.9243" y2="52.6877" gradientTransform="matrix(10.9288 0 0 10.9288 1139.3865 -587.8858)">
					<stop  offset="0" style="stop-color:#FFFFFF"/>
					<stop  offset="1" style="stop-color:#D5CAFF"/>
				</linearGradient>
				<path class="st16" d="M20.3,28.1v7h-0.1c-0.4,2.2-2.7,3.9-5.4,3.9s-5-1.7-5.4-3.9H9.3v-7C9.3,28.1,20.3,28.1,20.3,28.1z"/>
				
					<linearGradient id="SVGID_5_" gradientUnits="userSpaceOnUse" x1="-102.9384" y1="56.6986" x2="-101.9384" y2="55.7698" gradientTransform="matrix(10.9288 0 0 10.9288 1150.3152 -587.8858)">
					<stop  offset="0" style="stop-color:#E8E2FF"/>
					<stop  offset="1" style="stop-color:#FFFFFF"/>
				</linearGradient>
				<path class="st17" d="M31.2,28.1v7h-0.1c-0.4,2.2-2.7,3.9-5.4,3.9s-5-1.7-5.4-3.9h-0.1v-7C20.2,28.1,31.2,28.1,31.2,28.1z"/>
				
					<linearGradient id="SVGID_6_" gradientUnits="userSpaceOnUse" x1="-102.9361" y1="56.6962" x2="-101.9361" y2="55.7674" gradientTransform="matrix(10.9288 0 0 10.9288 1170.6111 -587.8858)">
					<stop  offset="0" style="stop-color:#E8E2FF"/>
					<stop  offset="1" style="stop-color:#FFFFFF"/>
				</linearGradient>
				<path class="st18" d="M51.5,28.1v7h-0.1C51,37.3,48.8,39,46.1,39s-5-1.7-5.4-3.9h-0.1v-7C40.6,28.1,51.5,28.1,51.5,28.1z"/>
				
					<linearGradient id="SVGID_7_" gradientUnits="userSpaceOnUse" x1="-102.9365" y1="56.6965" x2="-101.9365" y2="55.7677" gradientTransform="matrix(10.9288 0 0 10.9288 1192.4695 -587.8858)">
					<stop  offset="0" style="stop-color:#E8E2FF"/>
					<stop  offset="1" style="stop-color:#FFFFFF"/>
				</linearGradient>
				<path class="st19" d="M73.4,28.1v7h-0.1c-0.4,2.2-2.7,3.9-5.4,3.9c-2.7,0-5-1.7-5.4-3.9h-0.1v-7C62.4,28.1,73.4,28.1,73.4,28.1z
					"/>
				
					<linearGradient id="SVGID_8_" gradientUnits="userSpaceOnUse" x1="-102.9363" y1="56.6964" x2="-101.9363" y2="55.7676" gradientTransform="matrix(10.9288 0 0 10.9288 1212.7654 -587.8858)">
					<stop  offset="0" style="stop-color:#E8E2FF"/>
					<stop  offset="1" style="stop-color:#FFFFFF"/>
				</linearGradient>
				<path class="st20" d="M93.7,28.1v7h-0.1c-0.4,2.2-2.7,3.9-5.4,3.9s-5-1.7-5.4-3.9h-0.1v-7C82.7,28.1,93.7,28.1,93.7,28.1z"/>
				
					<linearGradient id="SVGID_9_" gradientUnits="userSpaceOnUse" x1="-102.9362" y1="56.6962" x2="-101.9362" y2="55.7674" gradientTransform="matrix(10.9288 0 0 10.9288 1233.0623 -587.8858)">
					<stop  offset="0" style="stop-color:#E8E2FF"/>
					<stop  offset="1" style="stop-color:#FFFFFF"/>
				</linearGradient>
				<path class="st21" d="M114,28.1v7h-0.1c-0.4,2.2-2.7,3.9-5.4,3.9c-2.7,0-5-1.7-5.4-3.9H103v-7C103,28.1,114,28.1,114,28.1z"/>
				
					<linearGradient id="SVGID_10_" gradientUnits="userSpaceOnUse" x1="-120.4695" y1="56.4387" x2="-116.6484" y2="53.1459" gradientTransform="matrix(9.3676 0 0 10.9288 1161.1997 -587.8858)">
					<stop  offset="0" style="stop-color:#FFFFFF"/>
					<stop  offset="1" style="stop-color:#D5CAFF"/>
				</linearGradient>
				<path class="st22" d="M40.6,28.1v7h-0.1c-0.4,2.2-2.3,3.9-4.6,3.9s-4.2-1.7-4.6-3.9h-0.1v-7C31.2,28.1,40.6,28.1,40.6,28.1z"/>
				
					<linearGradient id="SVGID_11_" gradientUnits="userSpaceOnUse" x1="-104.1265" y1="55.9825" x2="-98.9257" y2="52.6898" gradientTransform="matrix(10.9288 0 0 10.9288 1181.5408 -587.8858)">
					<stop  offset="0" style="stop-color:#FFFFFF"/>
					<stop  offset="1" style="stop-color:#D5CAFF"/>
				</linearGradient>
				<path class="st23" d="M51.5,28.1h10.9v6.2c0,2.6-2.4,4.7-5.5,4.7c-3,0-5.5-2.1-5.5-4.7l0,0L51.5,28.1L51.5,28.1z"/>
				
					<linearGradient id="SVGID_12_" gradientUnits="userSpaceOnUse" x1="-120.4718" y1="56.4414" x2="-116.6508" y2="53.1486" gradientTransform="matrix(9.3676 0 0 10.9288 1203.3506 -587.8858)">
					<stop  offset="0" style="stop-color:#FFFFFF"/>
					<stop  offset="1" style="stop-color:#D5CAFF"/>
				</linearGradient>
				<path class="st24" d="M82.7,28.1v7h-0.1C82.2,37.3,80.3,39,78,39c-2.3,0-4.2-1.7-4.6-3.9h-0.1v-7C73.3,28.1,82.7,28.1,82.7,28.1
					z"/>
				
					<linearGradient id="SVGID_13_" gradientUnits="userSpaceOnUse" x1="-120.4719" y1="56.4415" x2="-116.6508" y2="53.1487" gradientTransform="matrix(9.3676 0 0 10.9288 1223.6528 -587.8858)">
					<stop  offset="0" style="stop-color:#FFFFFF"/>
					<stop  offset="1" style="stop-color:#D5CAFF"/>
				</linearGradient>
				<path class="st25" d="M103,28.1v7h-0.1c-0.4,2.2-2.3,3.9-4.6,3.9s-4.2-1.7-4.6-3.9h-0.1v-7C93.6,28.1,103,28.1,103,28.1z"/>
				
					<linearGradient id="Path-7_1_" gradientUnits="userSpaceOnUse" x1="-51.4066" y1="22.0775" x2="-52.3179" y2="23.5598" gradientTransform="matrix(21.8577 0 0 28.1027 1139.332 -616.0021)">
					<stop  offset="0" style="stop-color:#7E59F6"/>
					<stop  offset="1" style="stop-color:#FFFFFF"/>
				</linearGradient>
				<polygon id="Path-7" class="st26" points="23.9,0 9.4,28.1 20.3,28.1 31.2,0 				"/>
				
					<linearGradient id="Path-7-Copy_1_" gradientUnits="userSpaceOnUse" x1="-72.1178" y1="21.7637" x2="-72.5823" y2="23.246" gradientTransform="matrix(15.6055 0 0 28.1027 1161.2272 -616.0021)">
					<stop  offset="0" style="stop-color:#7E59F6"/>
					<stop  offset="1" style="stop-color:#FFFFFF"/>
				</linearGradient>
				<polygon id="Path-7-Copy" class="st27" points="39.4,0 31.2,28.1 40.6,28.1 46.8,0 				"/>
				
					<linearGradient id="Path-7-Copy-3_1_" gradientUnits="userSpaceOnUse" x1="80.3506" y1="21.7231" x2="79.9703" y2="23.2054" gradientTransform="matrix(-14.1205 0 0 28.1027 1212.7646 -616.0021)">
					<stop  offset="0" style="stop-color:#7E59F6"/>
					<stop  offset="1" style="stop-color:#FFFFFF"/>
				</linearGradient>
				<polygon id="Path-7-Copy-3" class="st28" points="74.5,0 82.7,28.1 73.4,28.1 68.6,0 				"/>
				
					<linearGradient id="Path-7-Copy-4_1_" gradientUnits="userSpaceOnUse" x1="51.9757" y1="22.0543" x2="51.0644" y2="23.5366" gradientTransform="matrix(-21.8577 0 0 28.1027 1233.0791 -616.0021)">
					<stop  offset="0" style="stop-color:#7E59F6"/>
					<stop  offset="1" style="stop-color:#FFFFFF"/>
				</linearGradient>
				<polygon id="Path-7-Copy-4" class="st29" points="88.5,0 103,28.1 93.7,28.1 81.2,0 				"/>
				
					<linearGradient id="Path-7-Copy-2_1_" gradientUnits="userSpaceOnUse" x1="-103.0447" y1="21.6968" x2="-103.2725" y2="23.1791" gradientTransform="matrix(10.9288 0 0 28.1027 1181.5408 -616.0021)">
					<stop  offset="0" style="stop-color:#7E59F6"/>
					<stop  offset="1" style="stop-color:#FFFFFF"/>
				</linearGradient>
				<polygon id="Path-7-Copy-2" class="st30" points="53.1,0 51.5,28.1 62.5,28.1 61.7,0 				"/>
			</g>
			<g id="Group-25" transform="translate(145.779251, 0.000000)">
				<g id="Group-22" transform="translate(28.929242, 1.549781)">
					
						<linearGradient id="Rectangle-Copy-24_1_" gradientUnits="userSpaceOnUse" x1="-1392.9746" y1="100.2068" x2="-1392.9746" y2="101.2038" gradientTransform="matrix(13.1483 0 0 6.1473 18321.8496 -616.0107)">
						<stop  offset="0" style="stop-color:#F83CAC"/>
						<stop  offset="0.4926" style="stop-color:#EF1C74"/>
						<stop  offset="0.9996" style="stop-color:#CD0B5B"/>
					</linearGradient>
					<path id="Rectangle-Copy-24" class="st31" d="M0.8,0h9.3c1.7,0,3.1,1.4,3.1,3.1v2.3c0,0.4-0.3,0.8-0.8,0.8H0.8
						C0.3,6.1,0,5.8,0,5.4V0.8C0,0.3,0.3,0,0.8,0z"/>
					<circle id="Oval" class="st32" cx="1.9" cy="3.1" r="1"/>
				</g>
				<path id="Path-3" class="st33" d="M11.2,39.3c1.6-2.3,0.7-4.7-2.6-7c-3-2-4.1-6.1-4.2-7.3S4.1,19.3,7,16c3-3.4,6.1-3.8,7.9-3.8
					s7.7,0.7,9.7,7.9s-1.9,7.7,2.7,9.3s1.6,5.4-3.8,7.6c-5.4,2.2-5.7,2-7.7,2.3C14.3,39.4,12.7,39.4,11.2,39.3z"/>
				
					<linearGradient id="Path-20_1_" gradientUnits="userSpaceOnUse" x1="-1395.5914" y1="9.6048" x2="-1396.157" y2="10.3873" gradientTransform="matrix(44.9025 0 0 64.5024 62701.6719 -616.0137)">
					<stop  offset="0" style="stop-color:#CFC0FF"/>
					<stop  offset="0.3092" style="stop-color:#7E59F6"/>
					<stop  offset="0.6643" style="stop-color:#D1C3FF"/>
					<stop  offset="1" style="stop-color:#7E59F6"/>
				</linearGradient>
				<path id="Path-20" class="st34" d="M22.7,34.4c3.6-4.3,8.1-8.4,13.3-12.2c1.6-6.8,3.5-11.8,5.5-15l0.1-0.8
					c-2.8,0.4-4.5,0.3-5.4-0.3c-1.2-0.9-1.6-4.5,0-4.5c1.1,0,1.9,0,2.6,0V0L41,1.3c0.6,0.2,1.1,0.3,1.6,0.3c0.6,0,3,1,2.3,3.5
					s-2.4,7.2-3.1,10.3s-1.7,6.4-2.6,9c-6.1,7.3-9,11.6-8.7,13c-0.1,2.5-0.3,4.2-0.5,5.3s-6.4,2.2-18.4,3.6
					c-3.5,1.5-5.6,2.6-6.4,3.3c2.1,5.1,3.1,8.5,3.1,10l5.5-0.1c1.5,1.9,1.5,3.3,0,4.3c-1.5,1-3.2,1-5.2,0c-4.2-3.4-7-8.6-8.5-15.7
					C3.7,43.8,9,39.9,16,36.5c0.5,2.7,1.6,3.6,3.2,2.7S22,36.8,22.7,34.4z"/>
				
					<linearGradient id="Path-19_1_" gradientUnits="userSpaceOnUse" x1="-1288.8087" y1="36.5001" x2="-1289.1051" y2="37.1197" gradientTransform="matrix(8.5633 0 0 16.9131 11058.4238 -589.8958)">
					<stop  offset="0" style="stop-color:#7E59F6"/>
					<stop  offset="1" style="stop-color:#F1F2FF"/>
				</linearGradient>
				<path id="Path-19" class="st35" d="M20.5,26.1c-0.1,3.3,0.7,6,2.2,8c2.9,2.7-0.7,8.9-3.2,8.9s-4.3-1.2-4.3-2.4
					c0-0.8,0.3-2.3,0.9-4.3c0.3-1,0.4-2.2,0.4-3.5S17.8,29.3,20.5,26.1z"/>
				
					<linearGradient id="Path-8_1_" gradientUnits="userSpaceOnUse" x1="-1319.1399" y1="37.8745" x2="-1319.6804" y2="38.4941" gradientTransform="matrix(11.1292 0 0 16.2756 14700.165 -599.2708)">
					<stop  offset="0" style="stop-color:#7E59F6"/>
					<stop  offset="1" style="stop-color:#F1F2FF"/>
				</linearGradient>
				<path id="Path-8" class="st36" d="M20.5,22.1v5c-0.6,2.6-1.7,4.4-3.4,5.6c-1.7,1.1-3.8-0.7-6.4-5.3c-2.9-6.6-1.3-10.1,4.7-10.6
					c0.7-0.1,1.1,0.6,1.2,2C16.8,20.3,18,21.4,20.5,22.1z"/>
				
					<linearGradient id="Path-21_1_" gradientUnits="userSpaceOnUse" x1="-1363.3124" y1="24.7391" x2="-1363.3124" y2="25.737" gradientTransform="matrix(19.5692 0 0 24.9004 26699.4824 -583.0132)">
					<stop  offset="0" style="stop-color:#F83CAC"/>
					<stop  offset="0.4926" style="stop-color:#EF1C74"/>
					<stop  offset="0.9996" style="stop-color:#CD0B5B"/>
				</linearGradient>
				<path id="Path-21" class="st37" d="M16.1,36.3c-0.2,4.6,0.9,6.1,3.1,4.4c1.6-1.5,2.7-3.6,3.5-6.5L24,33c0.1,5.1,2.2,7.9,6.3,8.4
					c-1.5,6.9-3.5,12.4-6.2,16.4c-3.7,0.2-6.1,0-7.1-0.5s-1.8-0.9-2.2-0.9c0.2-3.9-1.1-7.3-4-10.4c0-1.8,0.6-3.5,1.8-5.2
					S14.9,37.5,16.1,36.3z"/>
				
					<linearGradient id="Path-25_1_" gradientUnits="userSpaceOnUse" x1="-1302.8394" y1="9.7502" x2="-1302.8528" y2="11.0865" gradientTransform="matrix(9.5598 0 0 61.5605 12463.2607 -536.5239)">
					<stop  offset="0" style="stop-color:#4725B2"/>
					<stop  offset="1" style="stop-color:#FFFFFF"/>
				</linearGradient>
				<path id="Path-25" class="st38" d="M4.1,79.5c-1,8.9-0.8,15.7,0.6,20.4c0.4,2.2,0.5,3.7,0.3,4.5c-0.2,1.1,1,9.7,0.4,22
					c-0.7,12.4,2.3,14.5,5.3,14.7s2.6-2.5,2-4.5c-0.8-2.8-2.9-6.5-2.9-8.5s-0.2-9.2,0.9-15s-0.9-8-0.9-11.5s1.3-4.4,1.3-9.9
					c0-3.6-0.4-7.3-1.3-11L4.1,79.5z"/>
				
					<linearGradient id="Path-24_1_" gradientUnits="userSpaceOnUse" x1="-1367.3362" y1="9.7602" x2="-1367.4017" y2="11.0965" gradientTransform="matrix(21.0488 0 0 61.5074 28796.498 -535.4589)">
					<stop  offset="0" style="stop-color:#7E59F6"/>
					<stop  offset="1" style="stop-color:#FFFFFF"/>
				</linearGradient>
				<path id="Path-24" class="st39" d="M19.1,85.3c-0.9,2.6-3.6,7.7-8.3,15.3c9,8.5,6.5,18.2,12.4,25.1c1.4,1.3,2.1,2.8,2.1,4.6
					c0,2.7,0.2,7.3-0.3,9c-1.4,1.9-2.6,2.7-3.1,2.7s-3.1-0.5-3.1-1.7c-0.3-1.9,1.6-3,1.2-7.6c0-1.6,0-2.9,0-4
					c-1.2-3.3-4.4-8.6-9.6-15.8C7,107.8,5,104.8,4.6,104C3.2,101.7,6.8,88,8,82.6C8.9,79.1,12.6,80,19.1,85.3z"/>
				<path id="Path-31" class="st40" d="M19.8,136.9c-2,4.1-1,5.9,2.9,5.2c1.7-0.7,2.6-2.5,2.6-5.6c-0.6,1.2-1.7,2-3.3,2.3
					C20.5,139.1,19.8,138.4,19.8,136.9z"/>
				
					<linearGradient id="Path-22_1_" gradientUnits="userSpaceOnUse" x1="-1379.4963" y1="21.2166" x2="-1379.4963" y2="22.2136" gradientTransform="matrix(27.1887 0 0 29.0338 37520.3086 -559.7531)">
					<stop  offset="0" style="stop-color:#F83CAC"/>
					<stop  offset="0.4926" style="stop-color:#EF1C74"/>
					<stop  offset="0.9996" style="stop-color:#CD0B5B"/>
				</linearGradient>
				<path id="Path-22" class="st41" d="M14.7,56.2c0,2.4-2,4.8-6.1,7.2C2.5,66.9,0.5,74.7,0,76.9c8.5,7.3,17.6,9.9,27.2,7.5
					c-2.2-2.1-2.9-5.2-2.3-9.5c1.1-7.8-4.1-11.1-0.8-17.1C20.9,57.9,17.8,57.3,14.7,56.2z"/>
				<path id="Path-23" class="st32" d="M14.7,56.2c3.7,1.2,6.9,1.7,9.4,1.6l-0.7,1.5c-2.9,0.2-5.9-0.4-8.9-1.8
					C14.6,57.2,14.7,56.8,14.7,56.2z"/>
				<path id="Path-4" class="st40" d="M6,136.5c1,3,2.6,4.5,4.9,4.5s2.9-1.5,1.7-4.5c0.1,1.5-0.5,2.3-1.7,2.3S8,138,6,136.5z"/>
			</g>
		</g>
	</g>
</g>
</svg>
