<?xml version="1.0" encoding="UTF-8"?>
<!DOCTYPE svg PUBLIC "-//W3C//DTD SVG 1.1//EN" "http://www.w3.org/Graphics/SVG/1.1/DTD/svg11.dtd">
<!-- Creator: CorelDRAW 2017 -->
<svg xmlns="http://www.w3.org/2000/svg" xml:space="preserve" width="1.6867in" height="1.6867in" version="1.1" style="shape-rendering:geometricPrecision; text-rendering:geometricPrecision; image-rendering:optimizeQuality; fill-rule:evenodd; clip-rule:evenodd"
viewBox="0 0 564.98 564.98"
 xmlns:xlink="http://www.w3.org/1999/xlink">
 <defs>
  <style type="text/css">
   <![CDATA[
    .fil0 {fill:#888888}
   ]]>
  </style>
 </defs>
 <g id="Layer_x0020_1">
  <metadata id="CorelCorpID_0Corel-Layer"/>
  <path class="fil0" d="M141.73 109.96c35.64,0.14 160.63,-0.42 210.09,0.45 -14.79,7.38 -22.78,9.3 -38.55,19.75 -13.21,8.76 -37.43,34.29 -45.53,49.14 -20.94,1.32 -114.06,-0.37 -142.27,-0.66 -24.9,-0.25 -45.72,2.16 -56.83,-14.28 -11.68,-17.29 -7.27,-39.71 6.61,-49.47 3.93,-2.76 10.08,-5.13 17.33,-5.08 16.69,0.11 36.76,0.09 49.14,0.14zm107.42 280.34c0.16,-64.44 2.95,-140.57 31.57,-196.32 29.03,-56.56 75.78,-77.47 143.69,-83.25 10.95,-0.93 67,-2.58 73.43,1.1 11.89,6.79 13.77,38.58 2.7,56.75 -10.76,17.65 -31.98,8.11 -66.08,10.48 -23.29,1.62 -42.26,5.46 -58.61,16.23 -49.76,32.77 -57.05,110.94 -57.03,171.26 0.01,21.22 4.2,53.96 -4,70.51 -9.86,19.92 -38.34,22.68 -55.3,18.31 -12.98,-3.34 -10.29,-13.04 -10.31,-27.51 -0.02,-12.51 -0.09,-25.03 -0.06,-37.53zm129.91 -123.29c9.29,-1.5 34.95,-0.93 45.48,-0.37 14.64,0.77 24.64,5.14 30.18,14.62 9.7,16.6 9.02,49.91 -26.56,53.93 -23.63,2.67 -68.6,2.3 -77.05,-14.17 -4.85,-9.46 -5.36,-26.62 0.25,-36.4 4.99,-8.7 14.03,-15.39 27.71,-17.6zm-204.81 -0.46c23.26,0.12 46.62,0.13 69.88,0.09 -4.63,23.63 -7.89,41.06 -7.34,68.63 -6.81,0.45 -66.39,0.41 -68.64,-0.16 -18.93,-2.29 -34.42,-14.87 -32.17,-36.84 2.27,-22.21 17.18,-31.83 38.28,-31.71zm301.76 -266.55l-387.04 0c-48.94,0 -88.97,40.03 -88.97,88.97l0 387.03c0,48.94 40.03,88.97 88.97,88.97l387.04 0c48.94,0 88.97,-40.03 88.97,-88.97l0 -387.03c0,-48.94 -40.04,-88.97 -88.97,-88.97zm-266.36 409.45c40.99,-2.5 42.53,47.12 1.85,47.25 -14.95,0.05 -32.51,-6.23 -32.98,-22.92 -0.45,-16.06 15.43,-23.37 31.13,-24.33z"/>
 </g>
</svg>
