<?xml version="1.0" encoding="UTF-8"?>
<!DOCTYPE svg PUBLIC "-//W3C//DTD SVG 1.1//EN" "http://www.w3.org/Graphics/SVG/1.1/DTD/svg11.dtd">
<!-- Creator: CorelDRAW 2017 -->
<svg xmlns="http://www.w3.org/2000/svg" xml:space="preserve" width="1.6867in" height="1.6867in" version="1.1" style="shape-rendering:geometricPrecision; text-rendering:geometricPrecision; image-rendering:optimizeQuality; fill-rule:evenodd; clip-rule:evenodd"
viewBox="0 0 1686.7 1686.7"
 xmlns:xlink="http://www.w3.org/1999/xlink">
 <defs>
  <style type="text/css">
   <![CDATA[
    .fil1 {fill:#FEFEFE}
    .fil0 {fill:#373435}

}
.svg:hover {
  fill: red;
}
   ]]>
     
  </style>
 </defs>
 <g id="Layer_x0020_1">
  <metadata id="CorelCorpID_0Corel-Layer"/>
  <g id="_916555184">
   <rect class="fil0" x="-0" y="-0" width="1686.7" height="1686.7" rx="265.62" ry="265.62"/>
   <g>
    <path class="fil1" d="M799.31 535.32c24.19,-44.33 96.5,-120.55 135.94,-146.71 47.07,-31.22 70.93,-36.94 115.07,-58.98 -147.66,-2.59 -520.79,-0.94 -627.2,-1.35 -36.98,-0.14 -96.89,-0.07 -146.71,-0.41 -21.65,-0.15 -40.01,6.92 -51.75,15.17 -41.46,29.12 -54.62,96.06 -19.75,147.68 33.16,49.09 95.3,41.89 169.65,42.64 84.22,0.85 362.22,5.89 424.75,1.96z"/>
    <path class="fil1" d="M728.84 796.02c-69.44,0.14 -139.19,0.11 -208.63,-0.26 -62.98,-0.33 -107.48,28.36 -114.27,94.68 -6.72,65.58 39.54,103.13 96.04,109.97 6.72,1.7 184.6,1.84 204.93,0.48 -1.62,-82.3 8.09,-134.33 21.92,-204.88z"/>
    <path class="fil1" d="M631.42 1363.44c121.45,-0.37 116.84,-148.52 -5.52,-141.05 -46.88,2.85 -94.29,24.67 -92.94,72.63 1.41,49.83 53.83,68.57 98.46,68.43z"/>
    <path class="fil1" d="M743.81 1165.21c-0.09,37.34 0.11,74.71 0.17,112.05 0.06,43.2 -7.98,72.15 30.78,82.13 50.62,13.05 135.65,4.83 165.09,-54.65 24.46,-49.4 11.95,-147.15 11.93,-210.5 -0.06,-180.06 21.71,-413.43 170.26,-511.27 48.79,-32.14 105.43,-43.61 174.96,-48.44 101.8,-7.07 165.16,21.42 197.29,-31.28 33.07,-54.25 27.46,-149.13 -8.05,-169.42 -19.18,-10.96 -186.52,-6.06 -219.21,-3.27 -202.73,17.27 -342.29,79.68 -428.97,248.54 -85.44,166.44 -93.76,393.71 -94.25,586.1z"/>
    <path class="fil1" d="M1048.2 958.35c25.22,49.17 159.48,50.28 230.03,42.31 106.21,-12 108.26,-111.43 79.29,-160.99 -16.53,-28.29 -46.39,-41.35 -90.09,-43.64 -31.43,-1.65 -108.04,-3.36 -135.77,1.11 -40.85,6.59 -67.83,26.57 -82.72,52.54 -16.74,29.2 -15.22,80.43 -0.74,108.66z"/>
   </g>
  </g>
 </g>
</svg>
