<?xml version="1.0" encoding="UTF-8"?>
<!DOCTYPE svg PUBLIC "-//W3C//DTD SVG 1.1//EN" "http://www.w3.org/Graphics/SVG/1.1/DTD/svg11.dtd">
<!-- Creator: CorelDRAW 2019 (64-Bit Evaluation Version) -->
<svg xmlns="http://www.w3.org/2000/svg" xml:space="preserve" width="37.9489mm" height="37.949mm" version="1.1" style="shape-rendering:geometricPrecision; text-rendering:geometricPrecision; image-rendering:optimizeQuality; fill-rule:evenodd; clip-rule:evenodd"
viewBox="0 0 110.23 110.24"
 xmlns:xlink="http://www.w3.org/1999/xlink"
 xmlns:xodm="http://www.corel.com/coreldraw/odm/2003">
 <defs>
  <style type="text/css">
   <![CDATA[
    .str0 {stroke:#2B2A29;stroke-width:0.58;stroke-miterlimit:22.9256}
    .fil2 {fill:#FEFEFE}
    .fil0 {fill:#2B2A29}
    .fil1 {fill:#FEFEFE;fill-rule:nonzero}
   ]]>
  </style>
 </defs>
 <g id="Layer_x0020_1">
  <metadata id="CorelCorpID_0Corel-Layer"/>
  <rect class="fil0 str0" x="0.29" y="0.29" width="109.65" height="109.65" rx="33.88" ry="54.83"/>
  <path class="fil1" d="M23.2 69.71l-15.37 2.75 -1.17 -6.54c-0.29,-1.64 -0.37,-2.86 -0.22,-3.66 0.14,-0.8 0.53,-1.48 1.15,-2.05 0.63,-0.57 1.39,-0.94 2.3,-1.11 1.16,-0.21 2.17,-0.04 3.04,0.5 0.87,0.54 1.52,1.47 1.96,2.78 0.27,-0.74 0.6,-1.37 0.99,-1.88 0.39,-0.52 1.12,-1.26 2.18,-2.21l2.66 -2.41 0.66 3.71 -2.96 2.82c-1.05,1.01 -1.7,1.69 -1.96,2.04 -0.26,0.35 -0.41,0.7 -0.47,1.05 -0.06,0.35 -0.02,0.89 0.11,1.6l0.11 0.63 6.42 -1.15 0.56 3.11zm-9.42 -1.53l-0.41 -2.3c-0.27,-1.49 -0.5,-2.4 -0.69,-2.75 -0.19,-0.35 -0.46,-0.6 -0.81,-0.75 -0.35,-0.16 -0.75,-0.19 -1.21,-0.11 -0.52,0.09 -0.91,0.31 -1.18,0.64 -0.27,0.33 -0.4,0.76 -0.39,1.27 0.01,0.26 0.13,1.02 0.35,2.27l0.43 2.42 3.91 -0.7zm5.71 -21.29l1.16 -2.8c0.98,0.62 1.65,1.4 2.03,2.33 0.37,0.94 0.42,2.01 0.14,3.22 -0.44,1.92 -1.4,3.19 -2.86,3.82 -1.17,0.49 -2.53,0.57 -4.06,0.21 -1.83,-0.42 -3.15,-1.23 -3.97,-2.42 -0.82,-1.19 -1.06,-2.52 -0.72,-3.98 0.38,-1.64 1.22,-2.8 2.52,-3.5 1.3,-0.7 3.07,-0.77 5.3,-0.21l-1.68 7.29c0.87,0.18 1.6,0.1 2.18,-0.24 0.58,-0.34 0.95,-0.84 1.11,-1.5 0.11,-0.46 0.07,-0.87 -0.11,-1.23 -0.18,-0.37 -0.52,-0.69 -1.04,-0.98zm-2.91 -0.85c-0.85,-0.17 -1.55,-0.11 -2.08,0.21 -0.54,0.31 -0.87,0.76 -1.01,1.36 -0.15,0.63 -0.03,1.21 0.33,1.73 0.37,0.52 0.96,0.87 1.75,1.05l1 -4.35zm-2.03 -8.07l0.83 -1.44 -0.74 -0.43c-0.83,-0.47 -1.39,-0.92 -1.7,-1.33 -0.31,-0.41 -0.45,-0.93 -0.44,-1.55 0.02,-0.62 0.23,-1.3 0.65,-2.02 0.43,-0.74 0.95,-1.4 1.58,-1.99l1.61 1.37c-0.34,0.37 -0.62,0.74 -0.85,1.13 -0.22,0.38 -0.29,0.71 -0.21,0.98 0.08,0.27 0.37,0.55 0.88,0.84l0.7 0.4 1.12 -1.95 2.04 1.17 -1.12 1.95 7.77 4.47 -1.49 2.59 -7.77 -4.47 -0.83 1.44 -2.04 -1.17zm16.39 -8.95l2.51 -1.7c0.48,1.06 0.61,2.08 0.41,3.06 -0.21,0.98 -0.76,1.91 -1.65,2.76 -1.42,1.36 -2.92,1.9 -4.49,1.62 -1.25,-0.23 -2.42,-0.92 -3.51,-2.06 -1.29,-1.36 -1.95,-2.76 -1.98,-4.2 -0.03,-1.45 0.5,-2.68 1.59,-3.72 1.22,-1.16 2.56,-1.67 4.03,-1.54 1.47,0.14 2.98,1.05 4.54,2.74l-5.41 5.16c0.63,0.63 1.28,0.96 1.95,1 0.67,0.04 1.26,-0.18 1.75,-0.65 0.34,-0.32 0.54,-0.69 0.59,-1.09 0.06,-0.4 -0.05,-0.87 -0.33,-1.39zm-1.97 -2.31c-0.61,-0.61 -1.23,-0.94 -1.85,-0.97 -0.62,-0.04 -1.15,0.16 -1.59,0.58 -0.47,0.45 -0.69,0.99 -0.67,1.63 0.02,0.64 0.32,1.25 0.89,1.84l3.23 -3.08zm11.43 0.21l-2.66 1.36 -5.16 -10.07 2.47 -1.26 0.73 1.43c0.08,-0.89 0.23,-1.53 0.46,-1.92 0.23,-0.38 0.56,-0.68 0.99,-0.91 0.61,-0.31 1.28,-0.44 2.01,-0.4l0.36 2.75c-0.6,-0.06 -1.09,0.01 -1.48,0.2 -0.38,0.19 -0.64,0.46 -0.79,0.79 -0.15,0.34 -0.17,0.81 -0.04,1.43 0.13,0.61 0.63,1.78 1.5,3.49l1.59 3.11zm24.96 -5.43l-1.87 2.26c-0.88,-0.45 -1.71,-1.07 -2.51,-1.85 -0.64,0.55 -1.33,0.95 -2.04,1.2 -0.72,0.25 -1.56,0.36 -2.54,0.34 -1.94,-0.05 -3.39,-0.63 -4.34,-1.75 -0.74,-0.86 -1.09,-1.85 -1.06,-2.95 0.03,-1 0.35,-1.9 0.97,-2.68 0.62,-0.78 1.53,-1.46 2.73,-2.01 -0.52,-0.65 -0.91,-1.26 -1.16,-1.84 -0.26,-0.58 -0.38,-1.13 -0.37,-1.64 0.02,-0.94 0.42,-1.74 1.19,-2.38 0.77,-0.64 1.86,-0.94 3.25,-0.91 1.34,0.03 2.39,0.41 3.13,1.11 0.74,0.71 1.1,1.56 1.07,2.55 -0.02,0.63 -0.22,1.23 -0.6,1.78 -0.39,0.56 -1.16,1.18 -2.31,1.87l2.07 2.94c0.27,-0.44 0.5,-1.03 0.7,-1.75l2.7 0.68c-0.29,0.95 -0.55,1.65 -0.76,2.09 -0.21,0.44 -0.43,0.81 -0.67,1.1 0.33,0.32 0.75,0.67 1.27,1.06 0.52,0.39 0.9,0.64 1.15,0.77zm-7.93 -8.71l0.82 -0.6c0.6,-0.45 0.91,-0.9 0.92,-1.35 0.01,-0.39 -0.12,-0.72 -0.4,-0.99 -0.28,-0.28 -0.66,-0.42 -1.15,-0.44 -0.47,-0.01 -0.85,0.1 -1.12,0.33 -0.27,0.23 -0.41,0.51 -0.42,0.82 -0.01,0.37 0.2,0.82 0.64,1.36l0.71 0.87zm-1.25 3.23c-0.69,0.33 -1.21,0.74 -1.57,1.22 -0.35,0.48 -0.53,0.98 -0.55,1.49 -0.02,0.65 0.18,1.18 0.59,1.6 0.41,0.42 0.97,0.64 1.67,0.66 0.47,0.01 0.92,-0.07 1.35,-0.24 0.44,-0.17 0.91,-0.47 1.43,-0.88l-2.94 -3.84zm16.7 10.98l9.65 -12.28 9.09 7.14 -1.63 2.07 -6.6 -5.19 -2.14 2.73 6.14 4.82 -1.63 2.07 -6.14 -4.82 -2.61 3.33 6.84 5.38 -1.63 2.07 -9.33 -7.33zm18.79 7.66l-0.93 -2.58c1.11,-0.29 2.08,-0.24 2.91,0.14 0.83,0.38 1.61,1.21 2.35,2.48 0.66,1.16 1.03,2.1 1.08,2.82 0.05,0.72 -0.07,1.32 -0.36,1.79 -0.29,0.47 -0.99,1.03 -2.12,1.68l-3.05 1.7c-0.86,0.49 -1.47,0.9 -1.84,1.22 -0.36,0.32 -0.71,0.72 -1.05,1.22l-1.48 -2.57c0.13,-0.16 0.34,-0.39 0.61,-0.68 0.13,-0.13 0.21,-0.22 0.25,-0.27 -0.69,-0.19 -1.28,-0.48 -1.79,-0.86 -0.51,-0.38 -0.93,-0.85 -1.25,-1.42 -0.58,-1.01 -0.76,-1.96 -0.55,-2.85 0.21,-0.89 0.74,-1.58 1.58,-2.06 0.55,-0.32 1.12,-0.47 1.71,-0.45 0.58,0.02 1.13,0.19 1.64,0.54 0.5,0.34 1.1,0.91 1.79,1.71 0.92,1.08 1.62,1.8 2.08,2.15l0.26 -0.15c0.5,-0.29 0.79,-0.62 0.87,-0.99 0.07,-0.37 -0.09,-0.9 -0.48,-1.58 -0.27,-0.46 -0.56,-0.77 -0.9,-0.92 -0.33,-0.16 -0.78,-0.18 -1.33,-0.07zm-0.1 4.68c-0.3,-0.27 -0.74,-0.72 -1.3,-1.35 -0.57,-0.63 -0.99,-1.02 -1.26,-1.15 -0.44,-0.2 -0.84,-0.19 -1.21,0.02 -0.37,0.21 -0.6,0.52 -0.71,0.95 -0.11,0.42 -0.04,0.84 0.2,1.26 0.27,0.47 0.68,0.82 1.23,1.07 0.42,0.18 0.82,0.22 1.22,0.12 0.26,-0.06 0.7,-0.27 1.32,-0.63l0.52 -0.3zm-1.8 10.93l-0.67 -2.91 11.03 -2.55 0.62 2.7 -1.57 0.36c0.85,0.29 1.43,0.6 1.74,0.92 0.32,0.32 0.53,0.71 0.64,1.18 0.15,0.67 0.12,1.35 -0.1,2.05l-2.75 -0.32c0.21,-0.57 0.26,-1.06 0.16,-1.48 -0.09,-0.41 -0.29,-0.73 -0.58,-0.96 -0.29,-0.23 -0.75,-0.36 -1.37,-0.39 -0.63,-0.03 -1.88,0.18 -3.75,0.61l-3.4 0.78zm0.24 15.84l0.23 -2.98 5.75 0.44c1.22,0.09 2.01,0.09 2.37,-0.01 0.37,-0.1 0.66,-0.29 0.88,-0.56 0.22,-0.27 0.35,-0.62 0.38,-1.02 0.04,-0.52 -0.07,-1 -0.32,-1.43 -0.25,-0.44 -0.61,-0.75 -1.06,-0.94 -0.46,-0.19 -1.31,-0.33 -2.57,-0.43l-5.1 -0.39 0.23 -2.98 11.28 0.86 -0.21 2.76 -1.66 -0.13c1.19,1.09 1.73,2.38 1.61,3.88 -0.05,0.66 -0.22,1.26 -0.49,1.79 -0.28,0.53 -0.61,0.92 -1,1.17 -0.39,0.25 -0.82,0.42 -1.3,0.49 -0.48,0.08 -1.15,0.08 -2.02,0.01l-7.01 -0.53z"/>
  <g id="_846818320">
   <path class="fil2" d="M69.77 71.4c-5.77,1.93 -15.53,-15.58 -15.21,-21.72 2.85,-1.28 4,0.53 5.96,2.6 1.54,1.62 2.7,3.17 4.08,5.23 2.4,3.6 5.86,9.65 5.17,13.89zm-12.26 19.71c-1.31,-3.75 -8.02,-5.57 -8.09,-10.68 3.53,-4.33 11.13,-7.02 16.64,-5.17 2.12,0.71 6.56,3.46 6.93,-1.53 0.62,-8.25 -8.35,-20.99 -13.65,-25.83 -1.52,-1.39 -5.11,-4.62 -7.75,-2.54 -1.46,1.15 -0.42,6.2 -1.15,9.07 -1.61,6.34 -5.26,7.92 -12.08,12.19 -5.74,3.61 -12.03,6.41 -10.42,13.31 0.83,3.57 3.51,5.41 5.87,6.2 8.29,2.79 5.57,-7.11 15.53,5.1 2.31,2.84 5.06,2.8 8.16,-0.12z"/>
   <path class="fil2" d="M69.76 55.23c0.79,3.56 5.15,0.05 10.57,-2.82 1.82,-0.96 2.5,-0.95 1.47,-3.09 -2.21,-0.15 -10.77,4.4 -12.03,5.91z"/>
   <path class="fil2" d="M72.46 45.14c-8.24,6.06 -5.25,7.99 -2.78,6.24 7.54,-5.34 5.45,-8.21 2.78,-6.24z"/>
   <path class="fil2" d="M72.88 59.69c-3.56,4.45 13.54,0.61 8.36,-1.84 -0.63,-0.3 -7.5,0.77 -8.36,1.84z"/>
   <path class="fil2" d="M74.2 65.6c-0.94,2.13 4,2.52 4.65,1.31 0.76,-1.42 -0.52,-1.94 -1.58,-2.16 -1.34,-0.27 -2.55,-0.33 -3.07,0.85z"/>
   <path class="fil2" d="M63.94 47.51c2.33,0.1 4.16,-2.92 2.82,-4.13 -1.1,-1 -2.12,0.36 -2.55,1.01 -0.7,1.05 -0.98,1.53 -0.27,3.12z"/>
  </g>
 </g>
</svg>
